<svg version="1.1" xmlns="http://www.w3.org/2000/svg" xmlns:xlink="http://www.w3.org/1999/xlink" width="1199" height="528" viewBox="0 0 1199 528"><defs/><g transform="matrix(1,0,0,1,0,0)"><g><g><g><path fill="none" stroke="#d3d3d3" paint-order="fill stroke markers" d=" M 0 0 L 1200 0" stroke-miterlimit="10" stroke-opacity="0.8" stroke-dasharray="5"/></g><g><path fill="none" stroke="#d3d3d3" paint-order="fill stroke markers" d=" M 0 0 L 0 800" stroke-miterlimit="10" stroke-opacity="0.8" stroke-dasharray="5"/></g></g><g id="_9462C390-913C-4C5A-9C4C-9E7EDDB71A50" bpmn2nodeid="_9462C390-913C-4C5A-9C4C-9E7EDDB71A50" transform="matrix(1,0,0,1,215,157)"><g><path fill="none" stroke="none"/></g><g transform="matrix(0.125,0,0,0.125,0,0)"><g transform="matrix(1,0,0,1,0,0)"><path fill="#e8fae6" stroke="none" id="_9462C390-913C-4C5A-9C4C-9E7EDDB71A50?shapeType=BACKGROUND" paint-order="stroke fill markers" d=" M 0 0 M 444 224 C 444 263.9 434.2 300.8 414.4 334.5 C 394.7 368.2 368 394.9 334.4 414.5 C 300.79999999999995 434.1 263.9 444 224 444 C 184.10000000000002 444 147.2 434.2 113.5 414.4 C 79.8 394.7 53.1 368 33.5 334.4 C 13.899999999999999 300.79999999999995 4 263.9 4 224 C 4 184.10000000000002 13.8 147.2 33.6 113.5 C 53.400000000000006 79.80000000000001 80.1 53.1 113.6 33.5 C 147.1 13.899999999999999 184.1 4 224 4 C 263.9 4 300.8 13.8 334.5 33.6 C 368.2 53.400000000000006 394.9 80.1 414.5 113.6 C 434.1 147.1 444 184.1 444 224 Z"/></g><g><g transform="matrix(1,0,0,1,0,0)"><g transform="matrix(1,0,0,1,0,0)"><path fill="#4aa241" stroke="none" id="_9462C390-913C-4C5A-9C4C-9E7EDDB71A50?shapeType=BORDER&amp;renderType=FILL" paint-order="stroke fill markers" d=" M 0 0 M 224 0 C 100.3 0 0 100.3 0 224 C 0 347.7 100.3 448 224 448 C 347.7 448 448 347.7 448 224 C 448 100.30000000000001 347.7 0 224 0 Z M 0 0 M 224 432 C 109.1 432 16 338.9 16 224 C 16 109.10000000000002 109.1 16 224 16 C 338.9 16 432 109.1 432 224 C 432 338.9 338.9 432 224 432 Z"/></g></g></g></g><g transform="matrix(1,0,0,1,28,61)"/></g><g id="_C08715B2-DEEC-4FA5-BC5D-CCED68FFF5BE" bpmn2nodeid="_C08715B2-DEEC-4FA5-BC5D-CCED68FFF5BE" transform="matrix(1,0,0,1,785.9282836914062,398.5)"><g><path fill="none" stroke="none"/></g><g transform="matrix(0.125,0,0,0.125,0,0)"><g transform="matrix(1,0,0,1,0,0)"><path fill="#fce7e7" stroke="none" id="_C08715B2-DEEC-4FA5-BC5D-CCED68FFF5BE?shapeType=BACKGROUND" paint-order="stroke fill markers" d=" M 0 0 M 444 224 C 444 263.9 434.2 300.8 414.4 334.5 C 394.7 368.2 368 394.9 334.4 414.5 C 300.79999999999995 434.1 263.9 444 224 444 C 184.10000000000002 444 147.2 434.2 113.5 414.4 C 79.8 394.7 53.1 368 33.5 334.4 C 13.899999999999999 300.79999999999995 4 263.9 4 224 C 4 184.10000000000002 13.8 147.2 33.6 113.5 C 53.400000000000006 79.80000000000001 80.1 53.1 113.6 33.5 C 147.1 13.899999999999999 184.1 4 224 4 C 263.9 4 300.8 13.8 334.5 33.6 C 368.2 53.400000000000006 394.9 80.1 414.5 113.6 C 434.1 147.1 444 184.1 444 224 Z"/></g><g><g transform="matrix(1,0,0,1,0,0)"><g transform="matrix(1,0,0,1,0,0)"><path fill="#a30000" stroke="none" id="_C08715B2-DEEC-4FA5-BC5D-CCED68FFF5BE?shapeType=BORDER&amp;renderType=FILL" paint-order="stroke fill markers" d=" M 0 0 M 224 0 C 100.3 0 0 100.3 0 224 C 0 347.7 100.3 448 224 448 C 347.7 448 448 347.7 448 224 C 448 100.30000000000001 347.7 0 224 0 Z M 0 0 M 224 400 C 126.8 400 48 321.2 48 224 C 48 126.80000000000001 126.8 48 224 48 C 321.2 48 400 126.8 400 224 C 400 321.2 321.2 400 224 400 Z"/></g></g></g></g><g transform="matrix(1,0,0,1,28,61)"/></g><g id="_82635C21-9353-454F-AC11-AD59CC3DD34A" bpmn2nodeid="_82635C21-9353-454F-AC11-AD59CC3DD34A" transform="matrix(1,0,0,1,351,58.5)"><g><path fill="none" stroke="none"/></g><g transform="matrix(1,0,0,1,0,0)"><path fill="#ffffff" stroke="none" id="_82635C21-9353-454F-AC11-AD59CC3DD34A?shapeType=BACKGROUND" paint-order="stroke fill markers" d=" M 2 0 L 651 0 L 651 0 A 2 2 0 0 1 653 2 L 653 251 L 653 251 A 2 2 0 0 1 651 253 L 2 253 L 2 253 A 2 2 0 0 1 0 251 L 0 2 L 0 2.0000000000000004 A 2 2 0 0 1 1.9999999999999996 0 Z"/></g><g transform="matrix(1,0,0,1,0,0)"><path fill="none" stroke="#393f44" id="_82635C21-9353-454F-AC11-AD59CC3DD34A?shapeType=BORDER&amp;renderType=STROKE" paint-order="fill stroke markers" d=" M 2 0 L 651 0 L 651 0 A 2 2 0 0 1 653 2 L 653 251 L 653 251 A 2 2 0 0 1 651 253 L 2 253 L 2 253 A 2 2 0 0 1 0 251 L 0 2 L 0 2.0000000000000004 A 2 2 0 0 1 1.9999999999999996 0 Z" stroke-miterlimit="10" stroke-width="1.5" stroke-dasharray=""/></g><g transform="matrix(1,0,0,1,280.95000076293945,0)"><text fill="#000000" stroke="none" font-family="Open Sans" font-size="12pt" font-style="normal" font-weight="normal" text-decoration="normal" x="45.54999923706055" y="12" text-anchor="middle" dominant-baseline="alphabetic">Sub-process</text></g><g id="_E52525FC-BDD2-45CB-B3B0-7B54A53735C8" bpmn2nodeid="_E52525FC-BDD2-45CB-B3B0-7B54A53735C8" transform="matrix(1,0,0,1,76,98.5)"><g><path fill="none" stroke="none"/></g><g transform="matrix(0.125,0,0,0.125,0,0)"><g transform="matrix(1,0,0,1,0,0)"><path fill="#e8fae6" stroke="none" id="_E52525FC-BDD2-45CB-B3B0-7B54A53735C8?shapeType=BACKGROUND" paint-order="stroke fill markers" d=" M 0 0 M 444 224 C 444 263.9 434.2 300.8 414.4 334.5 C 394.7 368.2 368 394.9 334.4 414.5 C 300.79999999999995 434.1 263.9 444 224 444 C 184.10000000000002 444 147.2 434.2 113.5 414.4 C 79.8 394.7 53.1 368 33.5 334.4 C 13.899999999999999 300.79999999999995 4 263.9 4 224 C 4 184.10000000000002 13.8 147.2 33.6 113.5 C 53.400000000000006 79.80000000000001 80.1 53.1 113.6 33.5 C 147.1 13.899999999999999 184.1 4 224 4 C 263.9 4 300.8 13.8 334.5 33.6 C 368.2 53.400000000000006 394.9 80.1 414.5 113.6 C 434.1 147.1 444 184.1 444 224 Z"/></g><g><g transform="matrix(1,0,0,1,0,0)"><g transform="matrix(1,0,0,1,0,0)"><path fill="#4aa241" stroke="none" id="_E52525FC-BDD2-45CB-B3B0-7B54A53735C8?shapeType=BORDER&amp;renderType=FILL" paint-order="stroke fill markers" d=" M 0 0 M 224 0 C 100.3 0 0 100.3 0 224 C 0 347.7 100.3 448 224 448 C 347.7 448 448 347.7 448 224 C 448 100.30000000000001 347.7 0 224 0 Z M 0 0 M 224 432 C 109.1 432 16 338.9 16 224 C 16 109.10000000000002 109.1 16 224 16 C 338.9 16 432 109.1 432 224 C 432 338.9 338.9 432 224 432 Z"/></g></g></g></g><g transform="matrix(1,0,0,1,28,61)"/></g><g id="_D0067D46-8623-4493-AEB3-7114023B37FC" bpmn2nodeid="_D0067D46-8623-4493-AEB3-7114023B37FC" transform="matrix(1,0,0,1,212,75.5)"><g><path fill="none" stroke="none"/></g><g transform="matrix(1,0,0,1,0,0)"><path fill="#ffffff" stroke="none" id="_D0067D46-8623-4493-AEB3-7114023B37FC?shapeType=BACKGROUND" paint-order="stroke fill markers" d=" M 2 0 L 152 0 L 152 0 A 2 2 0 0 1 154 2 L 154 100 L 154 100 A 2 2 0 0 1 152 102 L 2 102 L 2 102 A 2 2 0 0 1 0 100 L 0 2 L 0 2.0000000000000004 A 2 2 0 0 1 1.9999999999999996 0 Z"/></g><g transform="matrix(1,0,0,1,0,0)"><path fill="none" stroke="#000000" id="_D0067D46-8623-4493-AEB3-7114023B37FC?shapeType=BORDER&amp;renderType=STROKE" paint-order="fill stroke markers" d=" M 2 0 L 152 0 L 152 0 A 2 2 0 0 1 154 2 L 154 100 L 154 100 A 2 2 0 0 1 152 102 L 2 102 L 2 102 A 2 2 0 0 1 0 100 L 0 2 L 0 2.0000000000000004 A 2 2 0 0 1 1.9999999999999996 0 Z" stroke-miterlimit="10" stroke-width="1.5" stroke-dasharray=""/></g><g><g transform="matrix(0.06,0,0,0.06,9.4,9.4)"><g transform="matrix(1,0,0,1,0,0)"><path fill="#393f44" stroke="none" id="_D0067D46-8623-4493-AEB3-7114023B37FCundefined" paint-order="stroke fill markers" d=" M 0 0 M 197.3 130.2 C 194.4 127.29999999999998 189.60000000000002 127.29999999999998 186.70000000000002 130.2 L 130.20000000000002 186.7 C 127.30000000000001 189.6 127.30000000000001 194.39999999999998 130.20000000000002 197.29999999999998 L 186.70000000000002 253.79999999999998 C 188.10000000000002 255.29999999999998 190.10000000000002 255.99999999999997 192.00000000000003 255.99999999999997 C 193.90000000000003 255.99999999999997 195.90000000000003 255.29999999999998 197.30000000000004 253.69999999999996 C 200.20000000000005 250.79999999999995 200.20000000000005 245.99999999999997 197.30000000000004 243.09999999999997 L 146.2 192 L 197.29999999999998 140.8 C 200.2 137.9 200.2 133.1 197.3 130.2 Z"/></g><g transform="matrix(1,0,0,1,0,0)"><path fill="#393f44" stroke="none" id="_D0067D46-8623-4493-AEB3-7114023B37FCundefined" paint-order="stroke fill markers" d=" M 0 0 M 261.3 130.2 C 258.40000000000003 127.29999999999998 253.60000000000002 127.29999999999998 250.70000000000002 130.2 C 247.8 133.1 247.8 137.89999999999998 250.70000000000002 140.79999999999998 L 301.8 191.89999999999998 L 250.7 243 C 247.79999999999998 245.9 247.79999999999998 250.7 250.7 253.6 C 252.1 255.29999999999998 254.1 256 256 256 C 257.9 256 259.9 255.3 261.3 253.8 L 317.8 197.3 C 320.7 194.4 320.7 189.60000000000002 317.8 186.70000000000002 L 261.3 130.2 Z"/></g><g transform="matrix(1,0,0,1,0,0)"><path fill="#393f44" stroke="none" id="_D0067D46-8623-4493-AEB3-7114023B37FCundefined" paint-order="stroke fill markers" d=" M 0 0 M 400 32 C 400 32 152.8 32 128 32 C 62 32 64 96 64 96 L 64 288 L 1 288 C 1 288 -4 416 78 416 L 320 416 C 368 416 384 368 384 336 C 384 314.2 384 224.4 384 160 L 448 160 L 448 96 C 448 96 449 32 400 32 Z M 0 0 M 78 383.9 C 68.5 383.9 61.6 381.09999999999997 55.5 374.9 C 43.4 362.4 37.5 339.59999999999997 34.9 320 L 256.9 320 C 257.09999999999997 322.7 257.29999999999995 325.4 257.59999999999997 328.2 C 259.99999999999994 351.59999999999997 264.7 370.09999999999997 271.9 383.9 L 78 383.9 L 78 383.9 Z M 0 0 M 352 336 C 352 345.9 349.6 360.3 342.9 371 C 337.2 380.1 330.4 384 320 384 C 285 384 288 288 288 288 L 96 288 L 96 96 L 96 95.9 L 96 95.10000000000001 C 96 90.60000000000001 97.6 78.30000000000001 104.7 71.20000000000002 C 106.5 69.40000000000002 111.9 64.00000000000001 128 64.00000000000001 L 356.5 64.00000000000001 C 354.4 72.80000000000001 352.8 81.80000000000001 352.2 89.9 C 352.2 90.5 352.09999999999997 91.10000000000001 352.09999999999997 91.7 C 352.09999999999997 92 352.09999999999997 92.3 352.09999999999997 92.60000000000001 C 352 94.8 352 96 352 96 L 352 160 L 352 336 Z"/></g></g></g><g transform="matrix(1,0,0,1,35,36)"><text fill="#000000" stroke="none" font-family="Open Sans" font-size="12pt" font-style="normal" font-weight="normal" text-decoration="normal" x="45.233333587646484" y="12" text-anchor="middle" dominant-baseline="alphabetic">Add person </text><text fill="#000000" stroke="none" font-family="Open Sans" font-size="12pt" font-style="normal" font-weight="normal" text-decoration="normal" x="45.233333587646484" y="27" text-anchor="middle" dominant-baseline="alphabetic">       Ivan       </text></g></g><g id="_6FECD5F0-412A-47D4-8900-0B37B5461BA5" bpmn2nodeid="_6FECD5F0-412A-47D4-8900-0B37B5461BA5" transform="matrix(1,0,0,1,446,98.5)"><g><path fill="none" stroke="none"/></g><g transform="matrix(0.125,0,0,0.125,0,0)"><g transform="matrix(1,0,0,1,0,0)"><path fill="#fce7e7" stroke="none" id="_6FECD5F0-412A-47D4-8900-0B37B5461BA5?shapeType=BACKGROUND" paint-order="stroke fill markers" d=" M 0 0 M 444 224 C 444 263.9 434.2 300.8 414.4 334.5 C 394.7 368.2 368 394.9 334.4 414.5 C 300.79999999999995 434.1 263.9 444 224 444 C 184.10000000000002 444 147.2 434.2 113.5 414.4 C 79.8 394.7 53.1 368 33.5 334.4 C 13.899999999999999 300.79999999999995 4 263.9 4 224 C 4 184.10000000000002 13.8 147.2 33.6 113.5 C 53.400000000000006 79.80000000000001 80.1 53.1 113.6 33.5 C 147.1 13.899999999999999 184.1 4 224 4 C 263.9 4 300.8 13.8 334.5 33.6 C 368.2 53.400000000000006 394.9 80.1 414.5 113.6 C 434.1 147.1 444 184.1 444 224 Z"/></g><g><g transform="matrix(1,0,0,1,0,0)"><g transform="matrix(1,0,0,1,0,0)"><path fill="#a30000" stroke="none" id="_6FECD5F0-412A-47D4-8900-0B37B5461BA5?shapeType=BORDER&amp;renderType=FILL" paint-order="stroke fill markers" d=" M 0 0 M 224 0 C 100.3 0 0 100.3 0 224 C 0 347.7 100.3 448 224 448 C 347.7 448 448 347.7 448 224 C 448 100.30000000000001 347.7 0 224 0 Z M 0 0 M 224 400 C 126.8 400 48 321.2 48 224 C 48 126.80000000000001 126.8 48 224 48 C 321.2 48 400 126.8 400 224 C 400 321.2 321.2 400 224 400 Z"/></g></g></g></g><g transform="matrix(1,0,0,1,28,61)"/></g><g id="_A776EFA7-3E2B-40AD-82B5-5F53211052E6" bpmn2nodeid="_A776EFA7-3E2B-40AD-82B5-5F53211052E6" transform="matrix(1,0,0,1,249,225)"><g><path fill="none" stroke="none"/></g><g transform="matrix(0.12499999999999993,0,0,0.125,0,0)"><g transform="matrix(1,0,0,1,0,0)"><path fill="#fbefcf" stroke="none" id="_A776EFA7-3E2B-40AD-82B5-5F53211052E6?shapeType=BACKGROUND" paint-order="stroke fill markers" d=" M 0 0 M 444 224 C 444 263.9 434.2 300.8 414.4 334.5 C 394.7 368.2 368 394.9 334.4 414.5 C 300.79999999999995 434.1 263.9 444 224 444 C 184.10000000000002 444 147.2 434.2 113.5 414.4 C 79.8 394.7 53.1 368 33.5 334.4 C 13.899999999999999 300.79999999999995 4 263.9 4 224 C 4 184.10000000000002 13.8 147.2 33.6 113.5 C 53.400000000000006 79.80000000000001 80.1 53.1 113.6 33.5 C 147.1 13.899999999999999 184.1 4 224 4 C 263.9 4 300.8 13.8 334.5 33.6 C 368.2 53.400000000000006 394.9 80.1 414.5 113.6 C 434.1 147.1 444 184.1 444 224 Z"/></g><g><g transform="matrix(1,0,0,1,0,0)"><g transform="matrix(1,0,0,1,0,0)"><path fill="rgb(229,160,0)" stroke="none" id="_A776EFA7-3E2B-40AD-82B5-5F53211052E6?shapeType=BORDER&amp;renderType=FILL" paint-order="stroke fill markers" d=" M 0 0 M 224 408 C 122.5 408 40 325.5 40 224 C 40 122.5 122.5 40 224 40 C 325.5 40 408 122.5 408 224 C 408 325.5 325.5 408 224 408 Z M 0 0 M 224 56 C 131.4 56 56 131.4 56 224 C 56 316.6 131.4 392 224 392 C 316.6 392 392 316.6 392 224 C 392 131.39999999999998 316.6 56 224 56 Z M 0 0 M 224 16 C 252.1 16 279.3 21.5 305 32.3 C 329.8 42.8 352 57.8 371.1 76.9 C 390.20000000000005 96.00000000000001 405.20000000000005 118.30000000000001 415.70000000000005 143 C 426.50000000000006 168.6 432.00000000000006 195.9 432.00000000000006 224 C 432.00000000000006 252.1 426.50000000000006 279.3 415.70000000000005 305 C 405.20000000000005 329.8 390.20000000000005 352 371.1 371.1 C 352 390.20000000000005 329.70000000000005 405.20000000000005 305 415.70000000000005 C 279.4 426.50000000000006 252.1 432.00000000000006 224 432.00000000000006 C 195.9 432.00000000000006 168.7 426.50000000000006 143 415.70000000000005 C 118.2 405.20000000000005 96 390.20000000000005 76.9 371.1 C 57.80000000000001 352 42.8 329.7 32.3 305 C 21.5 279.3 16 252.1 16 224 C 16 195.9 21.5 168.7 32.3 143 C 42.8 118.2 57.8 96 76.9 76.9 C 96.00000000000001 57.80000000000001 118.30000000000001 42.800000000000004 143 32.300000000000004 C 168.7 21.5 195.9 16 224 16 M 224 0 C 100.3 0 0 100.3 0 224 C 0 347.7 100.3 448 224 448 C 347.7 448 448 347.7 448 224 C 448 100.30000000000001 347.7 0 224 0 L 224 0 Z"/></g></g></g><g><g transform="matrix(1,0,0,1,0,0)"><g transform="matrix(1,0,0,1,0,0)"><path fill="#e5a000" stroke="none" id="_A776EFA7-3E2B-40AD-82B5-5F53211052E6undefined" paint-order="stroke fill markers" d=" M 0 0 M 320.2 304.7 C 320.2 308 319.09999999999997 310.8 316.7 313.2 C 314.3 315.5 311.59999999999997 316.7 308.2 316.7 L 140.2 316.7 C 136.79999999999998 316.7 134 315.5 131.7 313.2 C 129.29999999999998 310.8 128.2 308 128.2 304.7 L 128.2 120.69999999999999 C 128.2 117.39999999999999 129.29999999999998 114.49999999999999 131.7 112.19999999999999 C 134 109.89999999999999 136.79999999999998 108.69999999999999 140.2 108.69999999999999 L 308.2 108.69999999999999 C 311.59999999999997 108.69999999999999 314.3 109.89999999999999 316.7 112.19999999999999 C 319.09999999999997 114.49999999999999 320.2 117.39999999999999 320.2 120.69999999999999 L 320.2 304.7 Z M 0 0 M 304.2 300.7 L 304.2 124.69999999999999 L 144.2 124.69999999999999 L 144.2 300.7 L 304.2 300.7 Z M 0 0 M 176.2 192.7 C 176.2 191.5 176.6 190.6 177.29999999999998 189.79999999999998 C 177.99999999999997 188.99999999999997 178.99999999999997 188.7 180.2 188.7 L 268.2 188.7 C 269.3 188.7 270.3 189.1 271.09999999999997 189.79999999999998 C 271.9 190.49999999999997 272.2 191.49999999999997 272.2 192.7 L 272.2 200.7 C 272.2 201.89999999999998 271.8 202.79999999999998 271.09999999999997 203.6 C 270.4 204.4 269.4 204.7 268.2 204.7 L 180.2 204.7 C 179 204.7 178.1 204.29999999999998 177.29999999999998 203.6 C 176.49999999999997 202.9 176.2 201.9 176.2 200.7 L 176.2 192.7 Z M 0 0 M 176.2 160.7 C 176.2 159.5 176.6 158.6 177.29999999999998 157.79999999999998 C 177.99999999999997 156.99999999999997 178.99999999999997 156.7 180.2 156.7 L 268.2 156.7 C 269.3 156.7 270.3 157.1 271.09999999999997 157.79999999999998 C 271.9 158.49999999999997 272.2 159.49999999999997 272.2 160.7 L 272.2 168.7 C 272.2 169.89999999999998 271.8 170.79999999999998 271.09999999999997 171.6 C 270.4 172.4 269.4 172.7 268.2 172.7 L 180.2 172.7 C 179 172.7 178.1 172.29999999999998 177.29999999999998 171.6 C 176.49999999999997 170.9 176.2 169.9 176.2 168.7 L 176.2 160.7 Z M 0 0 M 268.2 220.7 C 269.3 220.7 270.3 221.1 271.09999999999997 221.79999999999998 C 271.9 222.49999999999997 272.2 223.49999999999997 272.2 224.7 L 272.2 232.7 C 272.2 233.89999999999998 271.8 234.79999999999998 271.09999999999997 235.6 C 270.4 236.4 269.4 236.7 268.2 236.7 L 180.2 236.7 C 179 236.7 178.1 236.29999999999998 177.29999999999998 235.6 C 176.49999999999997 234.9 176.2 233.9 176.2 232.7 L 176.2 224.7 C 176.2 223.5 176.6 222.6 177.29999999999998 221.79999999999998 C 177.99999999999997 220.99999999999997 178.99999999999997 220.7 180.2 220.7 L 268.2 220.7 Z M 0 0 M 268.2 252.7 C 269.3 252.7 270.3 253.1 271.09999999999997 253.79999999999998 C 271.8999999999999 254.49999999999997 272.2 255.49999999999997 272.2 256.7 L 272.2 264.7 C 272.2 265.8 271.8 266.8 271.09999999999997 267.59999999999997 C 270.3999999999999 268.3999999999999 269.4 268.7 268.2 268.7 L 180.2 268.7 C 179 268.7 178.1 268.3 177.29999999999998 267.59999999999997 C 176.49999999999997 266.8999999999999 176.2 265.9 176.2 264.7 L 176.2 256.7 C 176.2 255.5 176.6 254.6 177.29999999999998 253.79999999999998 C 177.99999999999997 252.99999999999997 178.99999999999997 252.7 180.2 252.7 L 268.2 252.7 Z"/></g></g></g></g><g transform="matrix(1,0,0,1,27.999999999999986,61)"/></g></g><g id="_8CD9BE88-56CC-4F8B-AA04-B341C671F8CB" bpmn2nodeid="_8CD9BE88-56CC-4F8B-AA04-B341C671F8CB" transform="matrix(1,0,0,1,1093,156.5)"><g><path fill="none" stroke="none"/></g><g transform="matrix(0.125,0,0,0.125,0,0)"><g transform="matrix(1,0,0,1,0,0)"><path fill="#fce7e7" stroke="none" id="_8CD9BE88-56CC-4F8B-AA04-B341C671F8CB?shapeType=BACKGROUND" paint-order="stroke fill markers" d=" M 0 0 M 444 224 C 444 263.9 434.2 300.8 414.4 334.5 C 394.7 368.2 368 394.9 334.4 414.5 C 300.79999999999995 434.1 263.9 444 224 444 C 184.10000000000002 444 147.2 434.2 113.5 414.4 C 79.8 394.7 53.1 368 33.5 334.4 C 13.899999999999999 300.79999999999995 4 263.9 4 224 C 4 184.10000000000002 13.8 147.2 33.6 113.5 C 53.400000000000006 79.80000000000001 80.1 53.1 113.6 33.5 C 147.1 13.899999999999999 184.1 4 224 4 C 263.9 4 300.8 13.8 334.5 33.6 C 368.2 53.400000000000006 394.9 80.1 414.5 113.6 C 434.1 147.1 444 184.1 444 224 Z"/></g><g><g transform="matrix(1,0,0,1,0,0)"><g transform="matrix(1,0,0,1,0,0)"><path fill="#a30000" stroke="none" id="_8CD9BE88-56CC-4F8B-AA04-B341C671F8CB?shapeType=BORDER&amp;renderType=FILL" paint-order="stroke fill markers" d=" M 0 0 M 224 0 C 100.3 0 0 100.3 0 224 C 0 347.7 100.3 448 224 448 C 347.7 448 448 347.7 448 224 C 448 100.30000000000001 347.7 0 224 0 Z M 0 0 M 224 400 C 126.8 400 48 321.2 48 224 C 48 126.80000000000001 126.8 48 224 48 C 321.2 48 400 126.8 400 224 C 400 321.2 321.2 400 224 400 Z"/></g></g></g></g><g transform="matrix(1,0,0,1,28,61)"/></g><g id="_9173D1C8-3ACB-4B8C-A45F-0181AD268A76" bpmn2nodeid="_9173D1C8-3ACB-4B8C-A45F-0181AD268A76"><g><path fill="none" stroke="#000000" paint-order="fill stroke markers" d=" M 483 185 L 548 185" stroke-miterlimit="10" stroke-dasharray=""/></g><g transform="matrix(1,0,0,1,483,185)"/><g transform="matrix(6.123233995736766e-17,1,-1,6.123233995736766e-17,563,180)"><path fill="#000000" stroke="#000000" paint-order="fill stroke markers" d=" M 10 15 L 0 15 L 5 0 Z" stroke-miterlimit="10" stroke-dasharray=""/></g><g transform="matrix(1,0,0,1,483,175)"/></g><g id="_72ED9645-1527-499F-8461-D3B4EE18D544" bpmn2nodeid="_72ED9645-1527-499F-8461-D3B4EE18D544"><g><path fill="none" stroke="#000000" paint-order="fill stroke markers" d=" M 717 185 L 782 185" stroke-miterlimit="10" stroke-dasharray=""/></g><g transform="matrix(1,0,0,1,717,185)"/><g transform="matrix(6.123233995736766e-17,1,-1,6.123233995736766e-17,797,180)"><path fill="#000000" stroke="#000000" paint-order="fill stroke markers" d=" M 10 15 L 0 15 L 5 0 Z" stroke-miterlimit="10" stroke-dasharray=""/></g><g transform="matrix(1,0,0,1,717,175)"/></g><g id="_AD52276C-3519-40F0-8116-0EA8EB14758D" bpmn2nodeid="_AD52276C-3519-40F0-8116-0EA8EB14758D"><g><path fill="none" stroke="#000000" paint-order="fill stroke markers" d=" M 271 185 L 336 185" stroke-miterlimit="10" stroke-dasharray=""/></g><g transform="matrix(1,0,0,1,271,185)"/><g transform="matrix(6.123233995736766e-17,1,-1,6.123233995736766e-17,351,180)"><path fill="#000000" stroke="#000000" paint-order="fill stroke markers" d=" M 10 15 L 0 15 L 5 0 Z" stroke-miterlimit="10" stroke-dasharray=""/></g><g transform="matrix(1,0,0,1,271,175)"/></g><g id="_F032E4DF-049F-4021-8C63-9E93717F2BD0" bpmn2nodeid="_F032E4DF-049F-4021-8C63-9E93717F2BD0"><g><path fill="none" stroke="#000000" paint-order="fill stroke markers" d=" M 1004 185 L 1078.0002367069333 184.5842683331071" stroke-miterlimit="10" stroke-dasharray=""/></g><g transform="matrix(1,0,0,1,1004,185)"/><g transform="matrix(0.005617888873807019,0.9999842195377893,-0.9999842195377893,0.005617888873807019,1092.971910555631,179.50007890231106)"><path fill="#000000" stroke="#000000" paint-order="fill stroke markers" d=" M 10 15 L 0 15 L 5 0 Z" stroke-miterlimit="10" stroke-dasharray=""/></g><g transform="matrix(1,0,0,1,1004.056178888738,174.75015780462212)"/></g><g transform="matrix(1,0,0,1,215,157)"/><g transform="matrix(1,0,0,1,785.9282836914062,398.5)"/><g transform="matrix(1,0,0,1,351,58.5)"/><g transform="matrix(1,0,0,1,427,157)"/><g transform="matrix(1,0,0,1,563,134)"/><g transform="matrix(1,0,0,1,797,157)"/><g transform="matrix(1,0,0,1,1093,156.5)"/><g transform="matrix(1,0,0,1,600,283.5)"/><g id="_40F7219E-F818-42A1-934B-2CF6CD49793D" bpmn2nodeid="_40F7219E-F818-42A1-934B-2CF6CD49793D" transform="matrix(1,0,0,1,550.9282836914062,375.5)"><g><path fill="none" stroke="none"/></g><g transform="matrix(1,0,0,1,0,0)"><path fill="#ffffff" stroke="none" id="_40F7219E-F818-42A1-934B-2CF6CD49793D?shapeType=BACKGROUND" paint-order="stroke fill markers" d=" M 2 0 L 152 0 L 152 0 A 2 2 0 0 1 154 2 L 154 100 L 154 100 A 2 2 0 0 1 152 102 L 2 102 L 2 102 A 2 2 0 0 1 0 100 L 0 2 L 0 2.0000000000000004 A 2 2 0 0 1 1.9999999999999996 0 Z"/></g><g transform="matrix(1,0,0,1,0,0)"><path fill="none" stroke="rgb(0,136,206)" id="_40F7219E-F818-42A1-934B-2CF6CD49793D?shapeType=BORDER&amp;renderType=STROKE" paint-order="fill stroke markers" d=" M 2 0 L 152 0 L 152 0 A 2 2 0 0 1 154 2 L 154 100 L 154 100 A 2 2 0 0 1 152 102 L 2 102 L 2 102 A 2 2 0 0 1 0 100 L 0 2 L 0 2.0000000000000004 A 2 2 0 0 1 1.9999999999999996 0 Z" stroke-miterlimit="10" stroke-width="1.5" stroke-dasharray=""/></g><g><g transform="matrix(0.06,0,0,0.06,9.4,9.4)"><g transform="matrix(1,0,0,1,0,0)"><path fill="#393f44" stroke="none" id="_40F7219E-F818-42A1-934B-2CF6CD49793Dundefined" paint-order="stroke fill markers" d=" M 0 0 M 197.3 130.2 C 194.4 127.29999999999998 189.60000000000002 127.29999999999998 186.70000000000002 130.2 L 130.20000000000002 186.7 C 127.30000000000001 189.6 127.30000000000001 194.39999999999998 130.20000000000002 197.29999999999998 L 186.70000000000002 253.79999999999998 C 188.10000000000002 255.29999999999998 190.10000000000002 255.99999999999997 192.00000000000003 255.99999999999997 C 193.90000000000003 255.99999999999997 195.90000000000003 255.29999999999998 197.30000000000004 253.69999999999996 C 200.20000000000005 250.79999999999995 200.20000000000005 245.99999999999997 197.30000000000004 243.09999999999997 L 146.2 192 L 197.29999999999998 140.8 C 200.2 137.9 200.2 133.1 197.3 130.2 Z"/></g><g transform="matrix(1,0,0,1,0,0)"><path fill="#393f44" stroke="none" id="_40F7219E-F818-42A1-934B-2CF6CD49793Dundefined" paint-order="stroke fill markers" d=" M 0 0 M 261.3 130.2 C 258.40000000000003 127.29999999999998 253.60000000000002 127.29999999999998 250.70000000000002 130.2 C 247.8 133.1 247.8 137.89999999999998 250.70000000000002 140.79999999999998 L 301.8 191.89999999999998 L 250.7 243 C 247.79999999999998 245.9 247.79999999999998 250.7 250.7 253.6 C 252.1 255.29999999999998 254.1 256 256 256 C 257.9 256 259.9 255.3 261.3 253.8 L 317.8 197.3 C 320.7 194.4 320.7 189.60000000000002 317.8 186.70000000000002 L 261.3 130.2 Z"/></g><g transform="matrix(1,0,0,1,0,0)"><path fill="#393f44" stroke="none" id="_40F7219E-F818-42A1-934B-2CF6CD49793Dundefined" paint-order="stroke fill markers" d=" M 0 0 M 400 32 C 400 32 152.8 32 128 32 C 62 32 64 96 64 96 L 64 288 L 1 288 C 1 288 -4 416 78 416 L 320 416 C 368 416 384 368 384 336 C 384 314.2 384 224.4 384 160 L 448 160 L 448 96 C 448 96 449 32 400 32 Z M 0 0 M 78 383.9 C 68.5 383.9 61.6 381.09999999999997 55.5 374.9 C 43.4 362.4 37.5 339.59999999999997 34.9 320 L 256.9 320 C 257.09999999999997 322.7 257.29999999999995 325.4 257.59999999999997 328.2 C 259.99999999999994 351.59999999999997 264.7 370.09999999999997 271.9 383.9 L 78 383.9 L 78 383.9 Z M 0 0 M 352 336 C 352 345.9 349.6 360.3 342.9 371 C 337.2 380.1 330.4 384 320 384 C 285 384 288 288 288 288 L 96 288 L 96 96 L 96 95.9 L 96 95.10000000000001 C 96 90.60000000000001 97.6 78.30000000000001 104.7 71.20000000000002 C 106.5 69.40000000000002 111.9 64.00000000000001 128 64.00000000000001 L 356.5 64.00000000000001 C 354.4 72.80000000000001 352.8 81.80000000000001 352.2 89.9 C 352.2 90.5 352.09999999999997 91.10000000000001 352.09999999999997 91.7 C 352.09999999999997 92 352.09999999999997 92.3 352.09999999999997 92.60000000000001 C 352 94.8 352 96 352 96 L 352 160 L 352 336 Z"/></g></g></g><g transform="matrix(1,0,0,1,37.25833511352539,28.5)"><text fill="#000000" stroke="none" font-family="Open Sans" font-size="12pt" font-style="normal" font-weight="normal" text-decoration="normal" x="39.74166488647461" y="12" text-anchor="middle" dominant-baseline="alphabetic">     Print      </text><text fill="#000000" stroke="none" font-family="Open Sans" font-size="12pt" font-style="normal" font-weight="normal" text-decoration="normal" x="39.74166488647461" y="27" text-anchor="middle" dominant-baseline="alphabetic">Condition  </text><text fill="#000000" stroke="none" font-family="Open Sans" font-size="12pt" font-style="normal" font-weight="normal" text-decoration="normal" x="39.74166488647461" y="42" text-anchor="middle" dominant-baseline="alphabetic">Catch data</text></g></g><g id="_CD9A0392-C059-44F9-A930-9E9C862B3F3E" bpmn2nodeid="_CD9A0392-C059-44F9-A930-9E9C862B3F3E"><g><path fill="none" stroke="#000000" paint-order="fill stroke markers" d=" M 628 339.5 L 627.9581654273603 360.50002976396763" stroke-miterlimit="10" stroke-dasharray=""/></g><g transform="matrix(1,0,0,1,628,339.5)"/><g transform="matrix(-0.99999801573549,-0.0019921157302709054,0.0019921157302709054,-0.99999801573549,632.9282737700837,375.5099605786514)"><path fill="#000000" stroke="#000000" paint-order="fill stroke markers" d=" M 10 15 L 0 15 L 5 0 Z" stroke-miterlimit="10" stroke-dasharray=""/></g><g transform="matrix(1,0,0,1,637.9282638487612,357.4800788426973)"/></g><g id="_334F1E08-330E-4436-8709-7BFB0C4ADD46" bpmn2nodeid="_334F1E08-330E-4436-8709-7BFB0C4ADD46"><g><path fill="none" stroke="#000000" paint-order="fill stroke markers" d=" M 704.9282836914062 426.5 L 770.9282836914062 426.5" stroke-miterlimit="10" stroke-dasharray=""/></g><g transform="matrix(1,0,0,1,704.9282836914062,426.5)"/><g transform="matrix(6.123233995736766e-17,1,-1,6.123233995736766e-17,785.9282836914062,421.5)"><path fill="#000000" stroke="#000000" paint-order="fill stroke markers" d=" M 10 15 L 0 15 L 5 0 Z" stroke-miterlimit="10" stroke-dasharray=""/></g><g transform="matrix(1,0,0,1,704.9282836914062,416.5)"/></g><g transform="matrix(1,0,0,1,550.9282836914062,375.5)"/></g></g></svg>