<svg version="1.1" xmlns="http://www.w3.org/2000/svg" xmlns:xlink="http://www.w3.org/1999/xlink" width="1126" height="393" viewBox="0 0 1126 393"><defs/><g transform="matrix(1,0,0,1,0,0)"><g><g><g><path fill="none" stroke="#d3d3d3" paint-order="fill stroke markers" d=" M 0 0 L 1200 0" stroke-miterlimit="10" stroke-opacity="0.8" stroke-dasharray="5"/></g><g><path fill="none" stroke="#d3d3d3" paint-order="fill stroke markers" d=" M 0 0 L 0 800" stroke-miterlimit="10" stroke-opacity="0.8" stroke-dasharray="5"/></g></g><g id="_A3CB1ED9-D6B1-49E7-894B-5695947CBC6E" bpmn2nodeid="_A3CB1ED9-D6B1-49E7-894B-5695947CBC6E" transform="matrix(1,0,0,1,208,43.5)"><g><path fill="none" stroke="none"/></g><g transform="matrix(1,0,0,1,0,0)"><path fill="#ffffff" stroke="none" id="_A3CB1ED9-D6B1-49E7-894B-5695947CBC6E?shapeType=BACKGROUND" paint-order="stroke fill markers" d=" M 2 0 L 265 0 L 265 0 A 2 2 0 0 1 267 2 L 267 132 L 267 132 A 2 2 0 0 1 265 134 L 2 134 L 2 134 A 2 2 0 0 1 0 132 L 0 2 L 0 2.0000000000000004 A 2 2 0 0 1 1.9999999999999996 0 Z"/></g><g transform="matrix(1,0,0,1,0,0)"><path fill="none" stroke="rgb(57,63,68)" id="_A3CB1ED9-D6B1-49E7-894B-5695947CBC6E?shapeType=BORDER&amp;renderType=STROKE" paint-order="fill stroke markers" d=" M 2 0 L 265 0 L 265 0 A 2 2 0 0 1 267 2 L 267 132 L 267 132 A 2 2 0 0 1 265 134 L 2 134 L 2 134 A 2 2 0 0 1 0 132 L 0 2 L 0 2.0000000000000004 A 2 2 0 0 1 1.9999999999999996 0 Z" stroke-miterlimit="10" stroke-width="1.5" stroke-dasharray=""/></g><g transform="matrix(1,0,0,1,48.5,0)"><text fill="#000000" stroke="none" font-family="Open Sans" font-size="12pt" font-style="normal" font-weight="normal" text-decoration="normal" x="85" y="12" text-anchor="middle" dominant-baseline="alphabetic">nodeInstance property</text></g><g id="_0FF702BC-489F-47B7-951E-811EA0E9E673" bpmn2nodeid="_0FF702BC-489F-47B7-951E-811EA0E9E673" transform="matrix(1,0,0,1,184,42.5)"><g><path fill="none" stroke="none"/></g><g transform="matrix(0.125,0,0,0.125,0,0)"><g transform="matrix(1,0,0,1,0,0)"><path fill="#fce7e7" stroke="none" id="_0FF702BC-489F-47B7-951E-811EA0E9E673?shapeType=BACKGROUND" paint-order="stroke fill markers" d=" M 0 0 M 444 224 C 444 263.9 434.2 300.8 414.4 334.5 C 394.7 368.2 368 394.9 334.4 414.5 C 300.79999999999995 434.1 263.9 444 224 444 C 184.10000000000002 444 147.2 434.2 113.5 414.4 C 79.8 394.7 53.1 368 33.5 334.4 C 13.899999999999999 300.79999999999995 4 263.9 4 224 C 4 184.10000000000002 13.8 147.2 33.6 113.5 C 53.400000000000006 79.80000000000001 80.1 53.1 113.6 33.5 C 147.1 13.899999999999999 184.1 4 224 4 C 263.9 4 300.8 13.8 334.5 33.6 C 368.2 53.400000000000006 394.9 80.1 414.5 113.6 C 434.1 147.1 444 184.1 444 224 Z"/></g><g><g transform="matrix(1,0,0,1,0,0)"><g transform="matrix(1,0,0,1,0,0)"><path fill="#a30000" stroke="none" id="_0FF702BC-489F-47B7-951E-811EA0E9E673?shapeType=BORDER&amp;renderType=FILL" paint-order="stroke fill markers" d=" M 0 0 M 224 0 C 100.3 0 0 100.3 0 224 C 0 347.7 100.3 448 224 448 C 347.7 448 448 347.7 448 224 C 448 100.30000000000001 347.7 0 224 0 Z M 0 0 M 224 400 C 126.8 400 48 321.2 48 224 C 48 126.80000000000001 126.8 48 224 48 C 321.2 48 400 126.8 400 224 C 400 321.2 321.2 400 224 400 Z"/></g></g></g></g><g transform="matrix(1,0,0,1,28,61)"/></g><g id="_97231D2A-AE56-4133-8D31-0CE295A451E4" bpmn2nodeid="_97231D2A-AE56-4133-8D31-0CE295A451E4" transform="matrix(1,0,0,1,48,42.5)"><g><path fill="none" stroke="none"/></g><g transform="matrix(0.125,0,0,0.125,0,0)"><g transform="matrix(1,0,0,1,0,0)"><path fill="#e8fae6" stroke="none" id="_97231D2A-AE56-4133-8D31-0CE295A451E4?shapeType=BACKGROUND" paint-order="stroke fill markers" d=" M 0 0 M 444 224 C 444 263.9 434.2 300.8 414.4 334.5 C 394.7 368.2 368 394.9 334.4 414.5 C 300.79999999999995 434.1 263.9 444 224 444 C 184.10000000000002 444 147.2 434.2 113.5 414.4 C 79.8 394.7 53.1 368 33.5 334.4 C 13.899999999999999 300.79999999999995 4 263.9 4 224 C 4 184.10000000000002 13.8 147.2 33.6 113.5 C 53.400000000000006 79.80000000000001 80.1 53.1 113.6 33.5 C 147.1 13.899999999999999 184.1 4 224 4 C 263.9 4 300.8 13.8 334.5 33.6 C 368.2 53.400000000000006 394.9 80.1 414.5 113.6 C 434.1 147.1 444 184.1 444 224 Z"/></g><g><g transform="matrix(1,0,0,1,0,0)"><g transform="matrix(1,0,0,1,0,0)"><path fill="#4aa241" stroke="none" id="_97231D2A-AE56-4133-8D31-0CE295A451E4?shapeType=BORDER&amp;renderType=FILL" paint-order="stroke fill markers" d=" M 0 0 M 224 0 C 100.3 0 0 100.3 0 224 C 0 347.7 100.3 448 224 448 C 347.7 448 448 347.7 448 224 C 448 100.30000000000001 347.7 0 224 0 Z M 0 0 M 224 432 C 109.1 432 16 338.9 16 224 C 16 109.10000000000002 109.1 16 224 16 C 338.9 16 432 109.1 432 224 C 432 338.9 338.9 432 224 432 Z"/></g></g></g></g><g transform="matrix(1,0,0,1,28,61)"/></g><g id="_797CF71D-D4F5-4D92-B560-1D973181D9CC" bpmn2nodeid="_797CF71D-D4F5-4D92-B560-1D973181D9CC" transform="matrix(1,0,0,1,194.60722891566263,106)"><g><path fill="none" stroke="none"/></g><g transform="matrix(0.125,0,0,0.125,0,0)"><g transform="matrix(1,0,0,1,0,0)"><path fill="#fbefcf" stroke="none" id="_797CF71D-D4F5-4D92-B560-1D973181D9CC?shapeType=BACKGROUND" paint-order="stroke fill markers" d=" M 0 0 M 444 224 C 444 263.9 434.2 300.8 414.4 334.5 C 394.7 368.2 368 394.9 334.4 414.5 C 300.79999999999995 434.1 263.9 444 224 444 C 184.10000000000002 444 147.2 434.2 113.5 414.4 C 79.8 394.7 53.1 368 33.5 334.4 C 13.899999999999999 300.79999999999995 4 263.9 4 224 C 4 184.10000000000002 13.8 147.2 33.6 113.5 C 53.400000000000006 79.80000000000001 80.1 53.1 113.6 33.5 C 147.1 13.899999999999999 184.1 4 224 4 C 263.9 4 300.8 13.8 334.5 33.6 C 368.2 53.400000000000006 394.9 80.1 414.5 113.6 C 434.1 147.1 444 184.1 444 224 Z"/></g><g><g transform="matrix(1,0,0,1,0,0)"><g transform="matrix(1,0,0,1,0,0)"><path fill="#e5a000" stroke="none" id="_797CF71D-D4F5-4D92-B560-1D973181D9CC?shapeType=BORDER&amp;renderType=FILL" paint-order="stroke fill markers" d=" M 0 0 M 224 408 C 122.5 408 40 325.5 40 224 C 40 122.5 122.5 40 224 40 C 325.5 40 408 122.5 408 224 C 408 325.5 325.5 408 224 408 Z M 0 0 M 224 56 C 131.4 56 56 131.4 56 224 C 56 316.6 131.4 392 224 392 C 316.6 392 392 316.6 392 224 C 392 131.39999999999998 316.6 56 224 56 Z M 0 0 M 224 16 C 252.1 16 279.3 21.5 305 32.3 C 329.8 42.8 352 57.8 371.1 76.9 C 390.20000000000005 96.00000000000001 405.20000000000005 118.30000000000001 415.70000000000005 143 C 426.50000000000006 168.6 432.00000000000006 195.9 432.00000000000006 224 C 432.00000000000006 252.1 426.50000000000006 279.3 415.70000000000005 305 C 405.20000000000005 329.8 390.20000000000005 352 371.1 371.1 C 352 390.20000000000005 329.70000000000005 405.20000000000005 305 415.70000000000005 C 279.4 426.50000000000006 252.1 432.00000000000006 224 432.00000000000006 C 195.9 432.00000000000006 168.7 426.50000000000006 143 415.70000000000005 C 118.2 405.20000000000005 96 390.20000000000005 76.9 371.1 C 57.80000000000001 352 42.8 329.7 32.3 305 C 21.5 279.3 16 252.1 16 224 C 16 195.9 21.5 168.7 32.3 143 C 42.8 118.2 57.8 96 76.9 76.9 C 96.00000000000001 57.80000000000001 118.30000000000001 42.800000000000004 143 32.300000000000004 C 168.7 21.5 195.9 16 224 16 M 224 0 C 100.3 0 0 100.3 0 224 C 0 347.7 100.3 448 224 448 C 347.7 448 448 347.7 448 224 C 448 100.30000000000001 347.7 0 224 0 L 224 0 Z"/></g></g></g><g><g transform="matrix(1,0,0,1,0,0)"><g transform="matrix(1,0,0,1,0,0)"><path fill="#e5a000" stroke="none" id="_797CF71D-D4F5-4D92-B560-1D973181D9CCundefined" paint-order="stroke fill markers" d=" M 0 0 M 318.5 124.9 C 318.2 124.80000000000001 317.9 124.7 317.6 124.7 C 316.70000000000005 124.7 315.70000000000005 125.3 314.5 126.5 L 226.2 215.1 C 225.39999999999998 215.9 224.79999999999998 216.7 224.39999999999998 217.6 L 224.39999999999998 128.89999999999998 C 224.39999999999998 126.79999999999998 223.79999999999998 125.39999999999998 222.7 124.89999999999998 C 222.39999999999998 124.79999999999998 222.1 124.69999999999997 221.79999999999998 124.69999999999997 C 220.89999999999998 124.69999999999997 219.89999999999998 125.29999999999997 218.7 126.49999999999997 L 130.39999999999998 215.09999999999997 C 128.79999999999998 216.59999999999997 127.99999999999997 218.49999999999997 127.99999999999997 220.69999999999996 C 127.99999999999997 222.79999999999995 128.79999999999998 224.69999999999996 130.39999999999998 226.29999999999995 L 218.89999999999998 314.9 C 220.09999999999997 316.09999999999997 221.2 316.7 222.09999999999997 316.7 C 222.39999999999998 316.7 222.69999999999996 316.59999999999997 222.89999999999998 316.5 C 223.99999999999997 316 224.49999999999997 314.6 224.49999999999997 312.5 L 224.49999999999997 223.7 C 224.89999999999998 224.6 225.49999999999997 225.5 226.19999999999996 226.29999999999998 L 314.69999999999993 314.9 C 315.8999999999999 316.09999999999997 316.99999999999994 316.7 317.8999999999999 316.7 C 318.19999999999993 316.7 318.49999999999994 316.59999999999997 318.69999999999993 316.5 C 319.79999999999995 316 320.29999999999995 314.6 320.29999999999995 312.5 L 320.29999999999995 128.9 C 320.2 126.7 319.6 125.4 318.5 124.9 Z M 0 0 M 208.4 281.8 L 147.3 220.70000000000002 L 208.4 159.5 L 208.4 281.8 Z M 0 0 M 304.2 281.8 L 243.1 220.70000000000002 L 304.2 159.5 L 304.2 281.8 Z"/></g></g></g></g><g transform="matrix(1,0,0,1,28,61)"/></g></g><g id="_F0B3B183-E72D-49B5-B199-AE75D697449D" bpmn2nodeid="_F0B3B183-E72D-49B5-B199-AE75D697449D"><g><path fill="none" stroke="#000000" paint-order="fill stroke markers" d=" M 312 114 L 377 114" stroke-miterlimit="10" stroke-dasharray=""/></g><g transform="matrix(1,0,0,1,312,114)"/><g transform="matrix(6.123233995736766e-17,1,-1,6.123233995736766e-17,392,109)"><path fill="#000000" stroke="#000000" paint-order="fill stroke markers" d=" M 10 15 L 0 15 L 5 0 Z" stroke-miterlimit="10" stroke-dasharray=""/></g><g transform="matrix(1,0,0,1,312,104)"/></g><g id="_6CD0EF17-102A-4658-B273-19E94A2D8799" bpmn2nodeid="_6CD0EF17-102A-4658-B273-19E94A2D8799" transform="matrix(1,0,0,1,354.40594482421875,240.5)"><g><path fill="none" stroke="none"/></g><g transform="matrix(1,0,0,1,0,0)"><path fill="#ffffff" stroke="none" id="_6CD0EF17-102A-4658-B273-19E94A2D8799?shapeType=BACKGROUND" paint-order="stroke fill markers" d=" M 2 0 L 152 0 L 152 0 A 2 2 0 0 1 154 2 L 154 100 L 154 100 A 2 2 0 0 1 152 102 L 2 102 L 2 102 A 2 2 0 0 1 0 100 L 0 2 L 0 2.0000000000000004 A 2 2 0 0 1 1.9999999999999996 0 Z"/></g><g transform="matrix(1,0,0,1,0,0)"><path fill="none" stroke="rgb(0,0,0)" id="_6CD0EF17-102A-4658-B273-19E94A2D8799?shapeType=BORDER&amp;renderType=STROKE" paint-order="fill stroke markers" d=" M 2 0 L 152 0 L 152 0 A 2 2 0 0 1 154 2 L 154 100 L 154 100 A 2 2 0 0 1 152 102 L 2 102 L 2 102 A 2 2 0 0 1 0 100 L 0 2 L 0 2.0000000000000004 A 2 2 0 0 1 1.9999999999999996 0 Z" stroke-miterlimit="10" stroke-width="1.5" stroke-dasharray=""/></g><g><g transform="matrix(0.06,0,0,0.06,9.4,9.4)"><g transform="matrix(1,0,0,1,0,0)"><path fill="#393f44" stroke="none" id="_6CD0EF17-102A-4658-B273-19E94A2D8799undefined" paint-order="stroke fill markers" d=" M 0 0 M 197.3 130.2 C 194.4 127.29999999999998 189.60000000000002 127.29999999999998 186.70000000000002 130.2 L 130.20000000000002 186.7 C 127.30000000000001 189.6 127.30000000000001 194.39999999999998 130.20000000000002 197.29999999999998 L 186.70000000000002 253.79999999999998 C 188.10000000000002 255.29999999999998 190.10000000000002 255.99999999999997 192.00000000000003 255.99999999999997 C 193.90000000000003 255.99999999999997 195.90000000000003 255.29999999999998 197.30000000000004 253.69999999999996 C 200.20000000000005 250.79999999999995 200.20000000000005 245.99999999999997 197.30000000000004 243.09999999999997 L 146.2 192 L 197.29999999999998 140.8 C 200.2 137.9 200.2 133.1 197.3 130.2 Z"/></g><g transform="matrix(1,0,0,1,0,0)"><path fill="#393f44" stroke="none" id="_6CD0EF17-102A-4658-B273-19E94A2D8799undefined" paint-order="stroke fill markers" d=" M 0 0 M 261.3 130.2 C 258.40000000000003 127.29999999999998 253.60000000000002 127.29999999999998 250.70000000000002 130.2 C 247.8 133.1 247.8 137.89999999999998 250.70000000000002 140.79999999999998 L 301.8 191.89999999999998 L 250.7 243 C 247.79999999999998 245.9 247.79999999999998 250.7 250.7 253.6 C 252.1 255.29999999999998 254.1 256 256 256 C 257.9 256 259.9 255.3 261.3 253.8 L 317.8 197.3 C 320.7 194.4 320.7 189.60000000000002 317.8 186.70000000000002 L 261.3 130.2 Z"/></g><g transform="matrix(1,0,0,1,0,0)"><path fill="#393f44" stroke="none" id="_6CD0EF17-102A-4658-B273-19E94A2D8799undefined" paint-order="stroke fill markers" d=" M 0 0 M 400 32 C 400 32 152.8 32 128 32 C 62 32 64 96 64 96 L 64 288 L 1 288 C 1 288 -4 416 78 416 L 320 416 C 368 416 384 368 384 336 C 384 314.2 384 224.4 384 160 L 448 160 L 448 96 C 448 96 449 32 400 32 Z M 0 0 M 78 383.9 C 68.5 383.9 61.6 381.09999999999997 55.5 374.9 C 43.4 362.4 37.5 339.59999999999997 34.9 320 L 256.9 320 C 257.09999999999997 322.7 257.29999999999995 325.4 257.59999999999997 328.2 C 259.99999999999994 351.59999999999997 264.7 370.09999999999997 271.9 383.9 L 78 383.9 L 78 383.9 Z M 0 0 M 352 336 C 352 345.9 349.6 360.3 342.9 371 C 337.2 380.1 330.4 384 320 384 C 285 384 288 288 288 288 L 96 288 L 96 96 L 96 95.9 L 96 95.10000000000001 C 96 90.60000000000001 97.6 78.30000000000001 104.7 71.20000000000002 C 106.5 69.40000000000002 111.9 64.00000000000001 128 64.00000000000001 L 356.5 64.00000000000001 C 354.4 72.80000000000001 352.8 81.80000000000001 352.2 89.9 C 352.2 90.5 352.09999999999997 91.10000000000001 352.09999999999997 91.7 C 352.09999999999997 92 352.09999999999997 92.3 352.09999999999997 92.60000000000001 C 352 94.8 352 96 352 96 L 352 160 L 352 336 Z"/></g></g></g><g transform="matrix(1,0,0,1,35,36)"><text fill="#000000" stroke="none" font-family="Open Sans" font-size="12pt" font-style="normal" font-weight="normal" text-decoration="normal" x="50.5703125" y="12" text-anchor="middle" dominant-baseline="alphabetic">       print         </text><text fill="#000000" stroke="none" font-family="Open Sans" font-size="12pt" font-style="normal" font-weight="normal" text-decoration="normal" x="50.5703125" y="27" text-anchor="middle" dominant-baseline="alphabetic">nodeInstance</text></g></g><g id="_05997CD8-750D-45C6-8002-B75D60A60762" bpmn2nodeid="_05997CD8-750D-45C6-8002-B75D60A60762"><g><path fill="none" stroke="#000000" paint-order="fill stroke markers" d=" M 430.60722891566263 205.5 L 431.0637271035671 225.5039042737227" stroke-miterlimit="10" stroke-dasharray="2,6"/></g><g transform="matrix(1,0,0,1,430.60722891566263,205.5)"/><g transform="matrix(-0.9997397150851526,0.022814514710110898,-0.022814514710110898,-0.9997397150851526,436.4046433996445,240.38592742644946)"><path fill="#000000" stroke="#000000" paint-order="fill stroke markers" d=" M 10 15 L 0 15 L 5 0 Z" stroke-miterlimit="10" stroke-dasharray=""/></g><g transform="matrix(1,0,0,1,440.60462606651413,222.77185485289888)"/></g><g transform="matrix(1,0,0,1,354.40594482421875,240.5)"/><g id="_3A50CB4D-5B51-4ABC-A153-A623308B5CBC" bpmn2nodeid="_3A50CB4D-5B51-4ABC-A153-A623308B5CBC" transform="matrix(1,0,0,1,109,83)"><g><path fill="none" stroke="none"/></g><g transform="matrix(0.125,0,0,0.125,0,0)"><g transform="matrix(1,0,0,1,0,0)"><path fill="#e8fae6" stroke="none" id="_3A50CB4D-5B51-4ABC-A153-A623308B5CBC?shapeType=BACKGROUND" paint-order="stroke fill markers" d=" M 0 0 M 444 224 C 444 263.9 434.2 300.8 414.4 334.5 C 394.7 368.2 368 394.9 334.4 414.5 C 300.79999999999995 434.1 263.9 444 224 444 C 184.10000000000002 444 147.2 434.2 113.5 414.4 C 79.8 394.7 53.1 368 33.5 334.4 C 13.899999999999999 300.79999999999995 4 263.9 4 224 C 4 184.10000000000002 13.8 147.2 33.6 113.5 C 53.400000000000006 79.80000000000001 80.1 53.1 113.6 33.5 C 147.1 13.899999999999999 184.1 4 224 4 C 263.9 4 300.8 13.8 334.5 33.6 C 368.2 53.400000000000006 394.9 80.1 414.5 113.6 C 434.1 147.1 444 184.1 444 224 Z"/></g><g><g transform="matrix(1,0,0,1,0,0)"><g transform="matrix(1,0,0,1,0,0)"><path fill="rgb(74,162,65)" stroke="none" id="_3A50CB4D-5B51-4ABC-A153-A623308B5CBC?shapeType=BORDER&amp;renderType=FILL" paint-order="stroke fill markers" d=" M 0 0 M 224 0 C 100.3 0 0 100.3 0 224 C 0 347.7 100.3 448 224 448 C 347.7 448 448 347.7 448 224 C 448 100.30000000000001 347.7 0 224 0 Z M 0 0 M 224 432 C 109.1 432 16 338.9 16 224 C 16 109.10000000000002 109.1 16 224 16 C 338.9 16 432 109.1 432 224 C 432 338.9 338.9 432 224 432 Z"/></g></g></g></g><g transform="matrix(1,0,0,1,28,61)"/></g><g id="_BA2B7FD9-622F-4203-87EE-95089EA96413" bpmn2nodeid="_BA2B7FD9-622F-4203-87EE-95089EA96413"><g><path fill="none" stroke="#000000" paint-order="fill stroke markers" d=" M 165 111 L 193.00101395883442 110.67440681443216" stroke-miterlimit="10" stroke-dasharray=""/></g><g transform="matrix(1,0,0,1,165,111)"/><g transform="matrix(0.011627120962144034,0.9999324027443713,-0.9999324027443713,0.011627120962144034,207.94186439518927,105.50033798627814)"><path fill="#000000" stroke="#000000" paint-order="fill stroke markers" d=" M 10 15 L 0 15 L 5 0 Z" stroke-miterlimit="10" stroke-dasharray=""/></g><g transform="matrix(1,0,0,1,165.11627120962143,100.75067597255628)"/></g><g transform="matrix(1,0,0,1,109,83)"/><g id="_B9695121-819E-4BDB-9DFB-79B209F0F6C5" bpmn2nodeid="_B9695121-819E-4BDB-9DFB-79B209F0F6C5" transform="matrix(1,0,0,1,528,82.5)"><g><path fill="none" stroke="none"/></g><g transform="matrix(0.125,0,0,0.125,0,0)"><g transform="matrix(1,0,0,1,0,0)"><path fill="#bedee1" stroke="none" id="_B9695121-819E-4BDB-9DFB-79B209F0F6C5?shapeType=BACKGROUND" paint-order="stroke fill markers" d=" M 0 0 M 444 224 C 444 263.9 434.2 300.8 414.4 334.5 C 394.7 368.2 368 394.9 334.4 414.5 C 300.79999999999995 434.1 263.9 444 224 444 C 184.10000000000002 444 147.2 434.2 113.5 414.4 C 79.8 394.7 53.1 368 33.5 334.4 C 13.899999999999999 300.79999999999995 4 263.9 4 224 C 4 184.10000000000002 13.8 147.2 33.6 113.5 C 53.400000000000006 79.80000000000001 80.1 53.1 113.6 33.5 C 147.1 13.899999999999999 184.1 4 224 4 C 263.9 4 300.8 13.8 334.5 33.6 C 368.2 53.400000000000006 394.9 80.1 414.5 113.6 C 434.1 147.1 444 184.1 444 224 Z"/></g><g><g transform="matrix(1,0,0,1,0,0)"><g transform="matrix(1,0,0,1,0,0)"><path fill="rgb(0,122,135)" stroke="none" id="_B9695121-819E-4BDB-9DFB-79B209F0F6C5?shapeType=BORDER&amp;renderType=FILL" paint-order="stroke fill markers" d=" M 0 0 M 224 408 C 122.5 408 40 325.5 40 224 C 40 122.5 122.5 40 224 40 C 325.5 40 408 122.5 408 224 C 408 325.5 325.5 408 224 408 Z M 0 0 M 224 56 C 131.4 56 56 131.4 56 224 C 56 316.6 131.4 392 224 392 C 316.6 392 392 316.6 392 224 C 392 131.39999999999998 316.6 56 224 56 Z M 0 0 M 224 16 C 252.1 16 279.3 21.5 305 32.3 C 329.8 42.8 352 57.8 371.1 76.9 C 390.20000000000005 96.00000000000001 405.20000000000005 118.30000000000001 415.70000000000005 143 C 426.50000000000006 168.6 432.00000000000006 195.9 432.00000000000006 224 C 432.00000000000006 252.1 426.50000000000006 279.3 415.70000000000005 305 C 405.20000000000005 329.8 390.20000000000005 352 371.1 371.1 C 352 390.20000000000005 329.70000000000005 405.20000000000005 305 415.70000000000005 C 279.4 426.50000000000006 252.1 432.00000000000006 224 432.00000000000006 C 195.9 432.00000000000006 168.7 426.50000000000006 143 415.70000000000005 C 118.2 405.20000000000005 96 390.20000000000005 76.9 371.1 C 57.80000000000001 352 42.8 329.7 32.3 305 C 21.5 279.3 16 252.1 16 224 C 16 195.9 21.5 168.7 32.3 143 C 42.8 118.2 57.8 96 76.9 76.9 C 96.00000000000001 57.80000000000001 118.30000000000001 42.800000000000004 143 32.300000000000004 C 168.7 21.5 195.9 16 224 16 M 224 0 C 100.3 0 0 100.3 0 224 C 0 347.7 100.3 448 224 448 C 347.7 448 448 347.7 448 224 C 448 100.30000000000001 347.7 0 224 0 L 224 0 Z"/></g></g></g><g><g transform="matrix(1,0,0,1,0,0)"><g transform="matrix(1,0,0,1,0,0)"><path fill="#007a87" stroke="none" id="_B9695121-819E-4BDB-9DFB-79B209F0F6C5undefined" paint-order="stroke fill markers" d=" M 0 0 M 314.6 126.5 C 316.20000000000005 124.9 317.5 124.4 318.6 124.9 C 319.70000000000005 125.4 320.20000000000005 126.80000000000001 320.20000000000005 128.9 L 320.20000000000005 312.5 C 320.20000000000005 314.6 319.70000000000005 316 318.6 316.5 C 317.6 317 316.20000000000005 316.5 314.6 314.9 L 226.3 226.29999999999998 C 225.60000000000002 225.49999999999997 225.10000000000002 224.79999999999998 224.70000000000002 223.89999999999998 L 224.70000000000002 312.5 C 224.70000000000002 314.6 224.10000000000002 316 223.10000000000002 316.5 C 222.00000000000003 317 220.70000000000002 316.4 219.10000000000002 314.9 L 130.60000000000002 226.29999999999998 C 129.00000000000003 224.7 128.20000000000002 222.89999999999998 128.20000000000002 220.7 C 128.20000000000002 218.5 129.00000000000003 216.6 130.60000000000002 215.1 L 219.00000000000003 126.5 C 220.60000000000002 124.9 221.90000000000003 124.4 223.00000000000003 124.9 C 224.10000000000002 125.4 224.60000000000002 126.80000000000001 224.60000000000002 128.9 L 224.60000000000002 217.5 C 225.00000000000003 216.6 225.50000000000003 215.8 226.20000000000002 215.1 L 314.6 126.5 Z"/></g></g></g></g><g transform="matrix(1,0,0,1,28,61)"/></g><g id="_B15B425A-F660-4493-8093-3F9B6177EB5C" bpmn2nodeid="_B15B425A-F660-4493-8093-3F9B6177EB5C"><g><path fill="none" stroke="#000000" paint-order="fill stroke markers" d=" M 475 110.5 L 513 110.5" stroke-miterlimit="10" stroke-dasharray=""/></g><g transform="matrix(1,0,0,1,475,110.5)"/><g transform="matrix(6.123233995736766e-17,1,-1,6.123233995736766e-17,528,105.5)"><path fill="#000000" stroke="#000000" paint-order="fill stroke markers" d=" M 10 15 L 0 15 L 5 0 Z" stroke-miterlimit="10" stroke-dasharray=""/></g><g transform="matrix(1,0,0,1,475,100.5)"/></g><g transform="matrix(1,0,0,1,528,82.5)"/><g id="_C55E9FF6-FB20-467B-8E54-85333F5A691C" bpmn2nodeid="_C55E9FF6-FB20-467B-8E54-85333F5A691C" transform="matrix(1,0,0,1,653,44)"><g><path fill="none" stroke="none"/></g><g transform="matrix(1,0,0,1,0,0)"><path fill="#ffffff" stroke="none" id="_C55E9FF6-FB20-467B-8E54-85333F5A691C?shapeType=BACKGROUND" paint-order="stroke fill markers" d=" M 2 0 L 228 0 L 228 0 A 2 2 0 0 1 230 2 L 230 132 L 230 132 A 2 2 0 0 1 228 134 L 2 134 L 2 134 A 2 2 0 0 1 0 132 L 0 2 L 0 2.0000000000000004 A 2 2 0 0 1 1.9999999999999996 0 Z"/></g><g transform="matrix(1,0,0,1,0,0)"><path fill="none" stroke="rgb(57,63,68)" id="_C55E9FF6-FB20-467B-8E54-85333F5A691C?shapeType=BORDER&amp;renderType=STROKE" paint-order="fill stroke markers" d=" M 2 0 L 228 0 L 228 0 A 2 2 0 0 1 230 2 L 230 132 L 230 132 A 2 2 0 0 1 228 134 L 2 134 L 2 134 A 2 2 0 0 1 0 132 L 0 2 L 0 2.0000000000000004 A 2 2 0 0 1 1.9999999999999996 0 Z" stroke-miterlimit="10" stroke-width="1.5" stroke-dasharray=""/></g><g transform="matrix(1,0,0,1,58.96484375,0)"><text fill="#000000" stroke="none" font-family="Open Sans" font-size="12pt" font-style="normal" font-weight="normal" text-decoration="normal" x="56.03515625" y="12" text-anchor="middle" dominant-baseline="alphabetic">signal property</text></g><g id="_05A3350A-1553-48C5-B58A-24853E156D4A" bpmn2nodeid="_05A3350A-1553-48C5-B58A-24853E156D4A" transform="matrix(1,0,0,1,27,42)"><g><path fill="none" stroke="none"/></g><g transform="matrix(0.125,0,0,0.125,0,0)"><g transform="matrix(1,0,0,1,0,0)"><path fill="#e8fae6" stroke="none" id="_05A3350A-1553-48C5-B58A-24853E156D4A?shapeType=BACKGROUND" paint-order="stroke fill markers" d=" M 0 0 M 444 224 C 444 263.9 434.2 300.8 414.4 334.5 C 394.7 368.2 368 394.9 334.4 414.5 C 300.79999999999995 434.1 263.9 444 224 444 C 184.10000000000002 444 147.2 434.2 113.5 414.4 C 79.8 394.7 53.1 368 33.5 334.4 C 13.899999999999999 300.79999999999995 4 263.9 4 224 C 4 184.10000000000002 13.8 147.2 33.6 113.5 C 53.400000000000006 79.80000000000001 80.1 53.1 113.6 33.5 C 147.1 13.899999999999999 184.1 4 224 4 C 263.9 4 300.8 13.8 334.5 33.6 C 368.2 53.400000000000006 394.9 80.1 414.5 113.6 C 434.1 147.1 444 184.1 444 224 Z"/></g><g><g transform="matrix(1,0,0,1,0,0)"><g transform="matrix(1,0,0,1,0,0)"><path fill="rgb(74,162,65)" stroke="none" id="_05A3350A-1553-48C5-B58A-24853E156D4A?shapeType=BORDER&amp;renderType=FILL" paint-order="stroke fill markers" d=" M 0 0 M 224 0 C 100.3 0 0 100.3 0 224 C 0 347.7 100.3 448 224 448 C 347.7 448 448 347.7 448 224 C 448 100.30000000000001 347.7 0 224 0 Z M 0 0 M 224 432 C 109.1 432 16 338.9 16 224 C 16 109.10000000000002 109.1 16 224 16 C 338.9 16 432 109.1 432 224 C 432 338.9 338.9 432 224 432 Z"/></g></g></g></g><g transform="matrix(1,0,0,1,28,61)"/></g><g id="_E2E2E3A6-CB9D-4761-81C5-EA747800C14B" bpmn2nodeid="_E2E2E3A6-CB9D-4761-81C5-EA747800C14B" transform="matrix(1,0,0,1,163,42)"><g><path fill="none" stroke="none"/></g><g transform="matrix(0.125,0,0,0.125,0,0)"><g transform="matrix(1,0,0,1,0,0)"><path fill="#fce7e7" stroke="none" id="_E2E2E3A6-CB9D-4761-81C5-EA747800C14B?shapeType=BACKGROUND" paint-order="stroke fill markers" d=" M 0 0 M 444 224 C 444 263.9 434.2 300.8 414.4 334.5 C 394.7 368.2 368 394.9 334.4 414.5 C 300.79999999999995 434.1 263.9 444 224 444 C 184.10000000000002 444 147.2 434.2 113.5 414.4 C 79.8 394.7 53.1 368 33.5 334.4 C 13.899999999999999 300.79999999999995 4 263.9 4 224 C 4 184.10000000000002 13.8 147.2 33.6 113.5 C 53.400000000000006 79.80000000000001 80.1 53.1 113.6 33.5 C 147.1 13.899999999999999 184.1 4 224 4 C 263.9 4 300.8 13.8 334.5 33.6 C 368.2 53.400000000000006 394.9 80.1 414.5 113.6 C 434.1 147.1 444 184.1 444 224 Z"/></g><g><g transform="matrix(1,0,0,1,0,0)"><g transform="matrix(1,0,0,1,0,0)"><path fill="rgb(163,0,0)" stroke="none" id="_E2E2E3A6-CB9D-4761-81C5-EA747800C14B?shapeType=BORDER&amp;renderType=FILL" paint-order="stroke fill markers" d=" M 0 0 M 224 0 C 100.3 0 0 100.3 0 224 C 0 347.7 100.3 448 224 448 C 347.7 448 448 347.7 448 224 C 448 100.30000000000001 347.7 0 224 0 Z M 0 0 M 224 400 C 126.8 400 48 321.2 48 224 C 48 126.80000000000001 126.8 48 224 48 C 321.2 48 400 126.8 400 224 C 400 321.2 321.2 400 224 400 Z"/></g></g></g></g><g transform="matrix(1,0,0,1,28,61)"/></g><g id="_1920B075-C0A6-4398-ACEE-8C9C17D5CEE8" bpmn2nodeid="_1920B075-C0A6-4398-ACEE-8C9C17D5CEE8" transform="matrix(1,0,0,1,96.7258064516129,106)"><g><path fill="none" stroke="none"/></g><g transform="matrix(0.125,0,0,0.125,0,0)"><g transform="matrix(1,0,0,1,0,0)"><path fill="#fbefcf" stroke="none" id="_1920B075-C0A6-4398-ACEE-8C9C17D5CEE8?shapeType=BACKGROUND" paint-order="stroke fill markers" d=" M 0 0 M 444 224 C 444 263.9 434.2 300.8 414.4 334.5 C 394.7 368.2 368 394.9 334.4 414.5 C 300.79999999999995 434.1 263.9 444 224 444 C 184.10000000000002 444 147.2 434.2 113.5 414.4 C 79.8 394.7 53.1 368 33.5 334.4 C 13.899999999999999 300.79999999999995 4 263.9 4 224 C 4 184.10000000000002 13.8 147.2 33.6 113.5 C 53.400000000000006 79.80000000000001 80.1 53.1 113.6 33.5 C 147.1 13.899999999999999 184.1 4 224 4 C 263.9 4 300.8 13.8 334.5 33.6 C 368.2 53.400000000000006 394.9 80.1 414.5 113.6 C 434.1 147.1 444 184.1 444 224 Z"/></g><g><g transform="matrix(1,0,0,1,0,0)"><g transform="matrix(1,0,0,1,0,0)"><path fill="rgb(229,160,0)" stroke="none" id="_1920B075-C0A6-4398-ACEE-8C9C17D5CEE8?shapeType=BORDER&amp;renderType=FILL" paint-order="stroke fill markers" d=" M 0 0 M 224 408 C 122.5 408 40 325.5 40 224 C 40 122.5 122.5 40 224 40 C 325.5 40 408 122.5 408 224 C 408 325.5 325.5 408 224 408 Z M 0 0 M 224 56 C 131.4 56 56 131.4 56 224 C 56 316.6 131.4 392 224 392 C 316.6 392 392 316.6 392 224 C 392 131.39999999999998 316.6 56 224 56 Z M 0 0 M 224 16 C 252.1 16 279.3 21.5 305 32.3 C 329.8 42.8 352 57.8 371.1 76.9 C 390.20000000000005 96.00000000000001 405.20000000000005 118.30000000000001 415.70000000000005 143 C 426.50000000000006 168.6 432.00000000000006 195.9 432.00000000000006 224 C 432.00000000000006 252.1 426.50000000000006 279.3 415.70000000000005 305 C 405.20000000000005 329.8 390.20000000000005 352 371.1 371.1 C 352 390.20000000000005 329.70000000000005 405.20000000000005 305 415.70000000000005 C 279.4 426.50000000000006 252.1 432.00000000000006 224 432.00000000000006 C 195.9 432.00000000000006 168.7 426.50000000000006 143 415.70000000000005 C 118.2 405.20000000000005 96 390.20000000000005 76.9 371.1 C 57.80000000000001 352 42.8 329.7 32.3 305 C 21.5 279.3 16 252.1 16 224 C 16 195.9 21.5 168.7 32.3 143 C 42.8 118.2 57.8 96 76.9 76.9 C 96.00000000000001 57.80000000000001 118.30000000000001 42.800000000000004 143 32.300000000000004 C 168.7 21.5 195.9 16 224 16 M 224 0 C 100.3 0 0 100.3 0 224 C 0 347.7 100.3 448 224 448 C 347.7 448 448 347.7 448 224 C 448 100.30000000000001 347.7 0 224 0 L 224 0 Z"/></g></g></g><g><g transform="matrix(1,0,0,1,0,0)"><g transform="matrix(1,0,0,1,0,0)"><path fill="#e5a000" stroke="none" id="_1920B075-C0A6-4398-ACEE-8C9C17D5CEE8undefined" paint-order="stroke fill markers" d=" M 0 0 M 318.5 124.9 C 318.2 124.80000000000001 317.9 124.7 317.6 124.7 C 316.70000000000005 124.7 315.70000000000005 125.3 314.5 126.5 L 226.2 215.1 C 225.39999999999998 215.9 224.79999999999998 216.7 224.39999999999998 217.6 L 224.39999999999998 128.89999999999998 C 224.39999999999998 126.79999999999998 223.79999999999998 125.39999999999998 222.7 124.89999999999998 C 222.39999999999998 124.79999999999998 222.1 124.69999999999997 221.79999999999998 124.69999999999997 C 220.89999999999998 124.69999999999997 219.89999999999998 125.29999999999997 218.7 126.49999999999997 L 130.39999999999998 215.09999999999997 C 128.79999999999998 216.59999999999997 127.99999999999997 218.49999999999997 127.99999999999997 220.69999999999996 C 127.99999999999997 222.79999999999995 128.79999999999998 224.69999999999996 130.39999999999998 226.29999999999995 L 218.89999999999998 314.9 C 220.09999999999997 316.09999999999997 221.2 316.7 222.09999999999997 316.7 C 222.39999999999998 316.7 222.69999999999996 316.59999999999997 222.89999999999998 316.5 C 223.99999999999997 316 224.49999999999997 314.6 224.49999999999997 312.5 L 224.49999999999997 223.7 C 224.89999999999998 224.6 225.49999999999997 225.5 226.19999999999996 226.29999999999998 L 314.69999999999993 314.9 C 315.8999999999999 316.09999999999997 316.99999999999994 316.7 317.8999999999999 316.7 C 318.19999999999993 316.7 318.49999999999994 316.59999999999997 318.69999999999993 316.5 C 319.79999999999995 316 320.29999999999995 314.6 320.29999999999995 312.5 L 320.29999999999995 128.9 C 320.2 126.7 319.6 125.4 318.5 124.9 Z M 0 0 M 208.4 281.8 L 147.3 220.70000000000002 L 208.4 159.5 L 208.4 281.8 Z M 0 0 M 304.2 281.8 L 243.1 220.70000000000002 L 304.2 159.5 L 304.2 281.8 Z"/></g></g></g></g><g transform="matrix(1,0,0,1,28,61)"/></g></g><g id="_D051F34D-77C6-4F55-8790-D3C30DCEE569" bpmn2nodeid="_D051F34D-77C6-4F55-8790-D3C30DCEE569"><g><path fill="none" stroke="#000000" paint-order="fill stroke markers" d=" M 584 110.5 L 638.0003938093176 110.8913072015168" stroke-miterlimit="10" stroke-dasharray=""/></g><g transform="matrix(1,0,0,1,584,110.5)"/><g transform="matrix(-0.007246186565546932,0.9999737460454936,-0.9999737460454936,-0.007246186565546932,653.0362309328277,106.00013126977254)"><path fill="#000000" stroke="#000000" paint-order="fill stroke markers" d=" M 10 15 L 0 15 L 5 0 Z" stroke-miterlimit="10" stroke-dasharray=""/></g><g transform="matrix(1,0,0,1,584.0724618656554,100.75026253954506)"/></g><g id="_F9AD914D-685B-458A-9488-8293FEB56640" bpmn2nodeid="_F9AD914D-685B-458A-9488-8293FEB56640"><g><path fill="none" stroke="#000000" paint-order="fill stroke markers" d=" M 736 114 L 801 114" stroke-miterlimit="10" stroke-dasharray=""/></g><g transform="matrix(1,0,0,1,736,114)"/><g transform="matrix(6.123233995736766e-17,1,-1,6.123233995736766e-17,816,109)"><path fill="#000000" stroke="#000000" paint-order="fill stroke markers" d=" M 10 15 L 0 15 L 5 0 Z" stroke-miterlimit="10" stroke-dasharray=""/></g><g transform="matrix(1,0,0,1,736,104)"/></g><g id="_1AEF8B9E-EF6B-429C-A35D-336F247FE80F" bpmn2nodeid="_1AEF8B9E-EF6B-429C-A35D-336F247FE80F" transform="matrix(1,0,0,1,928,83)"><g><path fill="none" stroke="none"/></g><g transform="matrix(0.125,0,0,0.125,0,0)"><g transform="matrix(1,0,0,1,0,0)"><path fill="#bedee1" stroke="none" id="_1AEF8B9E-EF6B-429C-A35D-336F247FE80F?shapeType=BACKGROUND" paint-order="stroke fill markers" d=" M 0 0 M 444 224 C 444 263.9 434.2 300.8 414.4 334.5 C 394.7 368.2 368 394.9 334.4 414.5 C 300.79999999999995 434.1 263.9 444 224 444 C 184.10000000000002 444 147.2 434.2 113.5 414.4 C 79.8 394.7 53.1 368 33.5 334.4 C 13.899999999999999 300.79999999999995 4 263.9 4 224 C 4 184.10000000000002 13.8 147.2 33.6 113.5 C 53.400000000000006 79.80000000000001 80.1 53.1 113.6 33.5 C 147.1 13.899999999999999 184.1 4 224 4 C 263.9 4 300.8 13.8 334.5 33.6 C 368.2 53.400000000000006 394.9 80.1 414.5 113.6 C 434.1 147.1 444 184.1 444 224 Z"/></g><g><g transform="matrix(1,0,0,1,0,0)"><g transform="matrix(1,0,0,1,0,0)"><path fill="rgb(0,122,135)" stroke="none" id="_1AEF8B9E-EF6B-429C-A35D-336F247FE80F?shapeType=BORDER&amp;renderType=FILL" paint-order="stroke fill markers" d=" M 0 0 M 224 408 C 122.5 408 40 325.5 40 224 C 40 122.5 122.5 40 224 40 C 325.5 40 408 122.5 408 224 C 408 325.5 325.5 408 224 408 Z M 0 0 M 224 56 C 131.4 56 56 131.4 56 224 C 56 316.6 131.4 392 224 392 C 316.6 392 392 316.6 392 224 C 392 131.39999999999998 316.6 56 224 56 Z M 0 0 M 224 16 C 252.1 16 279.3 21.5 305 32.3 C 329.8 42.8 352 57.8 371.1 76.9 C 390.20000000000005 96.00000000000001 405.20000000000005 118.30000000000001 415.70000000000005 143 C 426.50000000000006 168.6 432.00000000000006 195.9 432.00000000000006 224 C 432.00000000000006 252.1 426.50000000000006 279.3 415.70000000000005 305 C 405.20000000000005 329.8 390.20000000000005 352 371.1 371.1 C 352 390.20000000000005 329.70000000000005 405.20000000000005 305 415.70000000000005 C 279.4 426.50000000000006 252.1 432.00000000000006 224 432.00000000000006 C 195.9 432.00000000000006 168.7 426.50000000000006 143 415.70000000000005 C 118.2 405.20000000000005 96 390.20000000000005 76.9 371.1 C 57.80000000000001 352 42.8 329.7 32.3 305 C 21.5 279.3 16 252.1 16 224 C 16 195.9 21.5 168.7 32.3 143 C 42.8 118.2 57.8 96 76.9 76.9 C 96.00000000000001 57.80000000000001 118.30000000000001 42.800000000000004 143 32.300000000000004 C 168.7 21.5 195.9 16 224 16 M 224 0 C 100.3 0 0 100.3 0 224 C 0 347.7 100.3 448 224 448 C 347.7 448 448 347.7 448 224 C 448 100.30000000000001 347.7 0 224 0 L 224 0 Z"/></g></g></g><g><g transform="matrix(1,0,0,1,0,0)"><g transform="matrix(1,0,0,1,0,0)"><path fill="#007a87" stroke="none" id="_1AEF8B9E-EF6B-429C-A35D-336F247FE80Fundefined" paint-order="stroke fill markers" d=" M 0 0 M 314.6 126.5 C 316.20000000000005 124.9 317.5 124.4 318.6 124.9 C 319.70000000000005 125.4 320.20000000000005 126.80000000000001 320.20000000000005 128.9 L 320.20000000000005 312.5 C 320.20000000000005 314.6 319.70000000000005 316 318.6 316.5 C 317.6 317 316.20000000000005 316.5 314.6 314.9 L 226.3 226.29999999999998 C 225.60000000000002 225.49999999999997 225.10000000000002 224.79999999999998 224.70000000000002 223.89999999999998 L 224.70000000000002 312.5 C 224.70000000000002 314.6 224.10000000000002 316 223.10000000000002 316.5 C 222.00000000000003 317 220.70000000000002 316.4 219.10000000000002 314.9 L 130.60000000000002 226.29999999999998 C 129.00000000000003 224.7 128.20000000000002 222.89999999999998 128.20000000000002 220.7 C 128.20000000000002 218.5 129.00000000000003 216.6 130.60000000000002 215.1 L 219.00000000000003 126.5 C 220.60000000000002 124.9 221.90000000000003 124.4 223.00000000000003 124.9 C 224.10000000000002 125.4 224.60000000000002 126.80000000000001 224.60000000000002 128.9 L 224.60000000000002 217.5 C 225.00000000000003 216.6 225.50000000000003 215.8 226.20000000000002 215.1 L 314.6 126.5 Z"/></g></g></g></g><g transform="matrix(1,0,0,1,28,61)"/></g><g id="_47064CA6-4A58-4148-BDB0-E7107D0279D7" bpmn2nodeid="_47064CA6-4A58-4148-BDB0-E7107D0279D7"><g><path fill="none" stroke="#000000" paint-order="fill stroke markers" d=" M 883 111 L 913 111" stroke-miterlimit="10" stroke-dasharray=""/></g><g transform="matrix(1,0,0,1,883,111)"/><g transform="matrix(6.123233995736766e-17,1,-1,6.123233995736766e-17,928,106)"><path fill="#000000" stroke="#000000" paint-order="fill stroke markers" d=" M 10 15 L 0 15 L 5 0 Z" stroke-miterlimit="10" stroke-dasharray=""/></g><g transform="matrix(1,0,0,1,883,101)"/></g><g id="_BB884E91-CBDF-4700-9CB9-D146BA43D96F" bpmn2nodeid="_BB884E91-CBDF-4700-9CB9-D146BA43D96F" transform="matrix(1,0,0,1,1020,83)"><g><path fill="none" stroke="none"/></g><g transform="matrix(0.125,0,0,0.125,0,0)"><g transform="matrix(1,0,0,1,0,0)"><path fill="#fce7e7" stroke="none" id="_BB884E91-CBDF-4700-9CB9-D146BA43D96F?shapeType=BACKGROUND" paint-order="stroke fill markers" d=" M 0 0 M 444 224 C 444 263.9 434.2 300.8 414.4 334.5 C 394.7 368.2 368 394.9 334.4 414.5 C 300.79999999999995 434.1 263.9 444 224 444 C 184.10000000000002 444 147.2 434.2 113.5 414.4 C 79.8 394.7 53.1 368 33.5 334.4 C 13.899999999999999 300.79999999999995 4 263.9 4 224 C 4 184.10000000000002 13.8 147.2 33.6 113.5 C 53.400000000000006 79.80000000000001 80.1 53.1 113.6 33.5 C 147.1 13.899999999999999 184.1 4 224 4 C 263.9 4 300.8 13.8 334.5 33.6 C 368.2 53.400000000000006 394.9 80.1 414.5 113.6 C 434.1 147.1 444 184.1 444 224 Z"/></g><g><g transform="matrix(1,0,0,1,0,0)"><g transform="matrix(1,0,0,1,0,0)"><path fill="rgb(163,0,0)" stroke="none" id="_BB884E91-CBDF-4700-9CB9-D146BA43D96F?shapeType=BORDER&amp;renderType=FILL" paint-order="stroke fill markers" d=" M 0 0 M 224 0 C 100.3 0 0 100.3 0 224 C 0 347.7 100.3 448 224 448 C 347.7 448 448 347.7 448 224 C 448 100.30000000000001 347.7 0 224 0 Z M 0 0 M 224 400 C 126.8 400 48 321.2 48 224 C 48 126.80000000000001 126.8 48 224 48 C 321.2 48 400 126.8 400 224 C 400 321.2 321.2 400 224 400 Z"/></g></g></g></g><g transform="matrix(1,0,0,1,28,61)"/></g><g id="_7308AFF3-DB7C-4988-B2A1-339708B03AD3" bpmn2nodeid="_7308AFF3-DB7C-4988-B2A1-339708B03AD3"><g><path fill="none" stroke="#000000" paint-order="fill stroke markers" d=" M 984 111 L 1005 111" stroke-miterlimit="10" stroke-dasharray=""/></g><g transform="matrix(1,0,0,1,984,111)"/><g transform="matrix(6.123233995736766e-17,1,-1,6.123233995736766e-17,1020,106)"><path fill="#000000" stroke="#000000" paint-order="fill stroke markers" d=" M 10 15 L 0 15 L 5 0 Z" stroke-miterlimit="10" stroke-dasharray=""/></g><g transform="matrix(1,0,0,1,984,101)"/></g><g transform="matrix(1,0,0,1,1020,83)"/><g id="_9F0B7153-3293-49DF-9D41-BAEFC53CFB21" bpmn2nodeid="_9F0B7153-3293-49DF-9D41-BAEFC53CFB21" transform="matrix(1,0,0,1,700.7258064516129,241)"><g><path fill="none" stroke="none"/></g><g transform="matrix(1,0,0,1,0,0)"><path fill="#ffffff" stroke="none" id="_9F0B7153-3293-49DF-9D41-BAEFC53CFB21?shapeType=BACKGROUND" paint-order="stroke fill markers" d=" M 2 0 L 152 0 L 152 0 A 2 2 0 0 1 154 2 L 154 100 L 154 100 A 2 2 0 0 1 152 102 L 2 102 L 2 102 A 2 2 0 0 1 0 100 L 0 2 L 0 2.0000000000000004 A 2 2 0 0 1 1.9999999999999996 0 Z"/></g><g transform="matrix(1,0,0,1,0,0)"><path fill="none" stroke="rgb(0,0,0)" id="_9F0B7153-3293-49DF-9D41-BAEFC53CFB21?shapeType=BORDER&amp;renderType=STROKE" paint-order="fill stroke markers" d=" M 2 0 L 152 0 L 152 0 A 2 2 0 0 1 154 2 L 154 100 L 154 100 A 2 2 0 0 1 152 102 L 2 102 L 2 102 A 2 2 0 0 1 0 100 L 0 2 L 0 2.0000000000000004 A 2 2 0 0 1 1.9999999999999996 0 Z" stroke-miterlimit="10" stroke-width="1.5" stroke-dasharray=""/></g><g><g transform="matrix(0.06,0,0,0.06,9.4,9.4)"><g transform="matrix(1,0,0,1,0,0)"><path fill="#393f44" stroke="none" id="_9F0B7153-3293-49DF-9D41-BAEFC53CFB21undefined" paint-order="stroke fill markers" d=" M 0 0 M 197.3 130.2 C 194.4 127.29999999999998 189.60000000000002 127.29999999999998 186.70000000000002 130.2 L 130.20000000000002 186.7 C 127.30000000000001 189.6 127.30000000000001 194.39999999999998 130.20000000000002 197.29999999999998 L 186.70000000000002 253.79999999999998 C 188.10000000000002 255.29999999999998 190.10000000000002 255.99999999999997 192.00000000000003 255.99999999999997 C 193.90000000000003 255.99999999999997 195.90000000000003 255.29999999999998 197.30000000000004 253.69999999999996 C 200.20000000000005 250.79999999999995 200.20000000000005 245.99999999999997 197.30000000000004 243.09999999999997 L 146.2 192 L 197.29999999999998 140.8 C 200.2 137.9 200.2 133.1 197.3 130.2 Z"/></g><g transform="matrix(1,0,0,1,0,0)"><path fill="#393f44" stroke="none" id="_9F0B7153-3293-49DF-9D41-BAEFC53CFB21undefined" paint-order="stroke fill markers" d=" M 0 0 M 261.3 130.2 C 258.40000000000003 127.29999999999998 253.60000000000002 127.29999999999998 250.70000000000002 130.2 C 247.8 133.1 247.8 137.89999999999998 250.70000000000002 140.79999999999998 L 301.8 191.89999999999998 L 250.7 243 C 247.79999999999998 245.9 247.79999999999998 250.7 250.7 253.6 C 252.1 255.29999999999998 254.1 256 256 256 C 257.9 256 259.9 255.3 261.3 253.8 L 317.8 197.3 C 320.7 194.4 320.7 189.60000000000002 317.8 186.70000000000002 L 261.3 130.2 Z"/></g><g transform="matrix(1,0,0,1,0,0)"><path fill="#393f44" stroke="none" id="_9F0B7153-3293-49DF-9D41-BAEFC53CFB21undefined" paint-order="stroke fill markers" d=" M 0 0 M 400 32 C 400 32 152.8 32 128 32 C 62 32 64 96 64 96 L 64 288 L 1 288 C 1 288 -4 416 78 416 L 320 416 C 368 416 384 368 384 336 C 384 314.2 384 224.4 384 160 L 448 160 L 448 96 C 448 96 449 32 400 32 Z M 0 0 M 78 383.9 C 68.5 383.9 61.6 381.09999999999997 55.5 374.9 C 43.4 362.4 37.5 339.59999999999997 34.9 320 L 256.9 320 C 257.09999999999997 322.7 257.29999999999995 325.4 257.59999999999997 328.2 C 259.99999999999994 351.59999999999997 264.7 370.09999999999997 271.9 383.9 L 78 383.9 L 78 383.9 Z M 0 0 M 352 336 C 352 345.9 349.6 360.3 342.9 371 C 337.2 380.1 330.4 384 320 384 C 285 384 288 288 288 288 L 96 288 L 96 96 L 96 95.9 L 96 95.10000000000001 C 96 90.60000000000001 97.6 78.30000000000001 104.7 71.20000000000002 C 106.5 69.40000000000002 111.9 64.00000000000001 128 64.00000000000001 L 356.5 64.00000000000001 C 354.4 72.80000000000001 352.8 81.80000000000001 352.2 89.9 C 352.2 90.5 352.09999999999997 91.10000000000001 352.09999999999997 91.7 C 352.09999999999997 92 352.09999999999997 92.3 352.09999999999997 92.60000000000001 C 352 94.8 352 96 352 96 L 352 160 L 352 336 Z"/></g></g></g><g transform="matrix(1,0,0,1,55.39453125,36)"><text fill="#000000" stroke="none" font-family="Open Sans" font-size="12pt" font-style="normal" font-weight="normal" text-decoration="normal" x="21.60546875" y="12" text-anchor="middle" dominant-baseline="alphabetic">print  </text><text fill="#000000" stroke="none" font-family="Open Sans" font-size="12pt" font-style="normal" font-weight="normal" text-decoration="normal" x="21.60546875" y="27" text-anchor="middle" dominant-baseline="alphabetic">signal</text></g></g><g id="_13BE94A9-1031-4DCF-A04A-C8B3619AFC92" bpmn2nodeid="_13BE94A9-1031-4DCF-A04A-C8B3619AFC92"><g><path fill="none" stroke="#000000" paint-order="fill stroke markers" d=" M 777.7258064516129 206 L 777.7258064516129 226" stroke-miterlimit="10" stroke-dasharray="2,6"/></g><g transform="matrix(1,0,0,1,777.7258064516129,206)"/><g transform="matrix(-1,1.2246467991473532e-16,-1.2246467991473532e-16,-1,782.7258064516129,241)"><path fill="#000000" stroke="#000000" paint-order="fill stroke markers" d=" M 10 15 L 0 15 L 5 0 Z" stroke-miterlimit="10" stroke-dasharray=""/></g><g transform="matrix(1,0,0,1,787.7258064516129,223.5)"/></g><g transform="matrix(1,0,0,1,208,43.5)"/><g transform="matrix(1,0,0,1,392,86)"/><g transform="matrix(1,0,0,1,256,86)"/><g transform="matrix(1,0,0,1,402.60722891566263,149.5)"/><g transform="matrix(1,0,0,1,653,44)"/><g transform="matrix(1,0,0,1,680,86)"/><g transform="matrix(1,0,0,1,816,86)"/><g transform="matrix(1,0,0,1,749.7258064516129,150)"/><g transform="matrix(1,0,0,1,928,83)"/><g transform="matrix(1,0,0,1,700.7258064516129,241)"/></g></g></svg>